<?xml version="1.0" encoding="UTF-8"?>
<svg id="Layer_1" data-name="Layer 1" xmlns="http://www.w3.org/2000/svg" xmlns:xlink="http://www.w3.org/1999/xlink" viewBox="0 0 4000 4000">
  <defs>
    <style>
      .cls-1 {
        clip-rule: evenodd;
        fill: none;
      }

      .cls-1, .cls-2 {
        stroke-width: 0px;
      }

      .cls-3 {
        clip-path: url(#clippath);
      }

      .cls-2 {
        fill: url(#Gradient_bez_nazwy_2);
      }
    </style>
    <clipPath id="clippath">
      <path id="SVGID" class="cls-1" d="M2000.99,2461.87h54.15s.08,0,.12,0c234.46-27.79,415.4-230.15,409.17-473.5-6.25-244.26-202.1-442.74-446.26-452.06-264.87-10.1-482.78,201.63-482.78,464.25s207.47,464.05,463.59,464.59c.55,0,1-.45,1-1v-1.28c0-.55.44-.99.99-.99ZM2377.98,503.58c0-.76.83-1.24,1.49-.86l363.98,210.14,566.3,326.96c109.62,63.29,177.14,180.25,177.14,306.82v1263.35c0,154.1-82.21,296.49-215.66,373.53l-527.79,304.72-365.47,211c-167.99,96.99-377.98-24.25-377.98-218.23h0s0-436.91,0-436.91c0-.54-.44-.99-.99-.99-464.89-.53-841.58-377.55-841.58-842.57,0-329.2,188.82-614.26,464.04-752.91.33-.17.54-.51.54-.88v-306.73c0-.76-.83-1.24-1.49-.86l-582.22,336.15c-91.1,52.6-147.23,149.81-147.23,255.01v934.65c0,108.79,58.04,209.31,152.25,263.71l578.19,333.82c.31.18.5.5.5.86v434.16c0,.76-.83,1.24-1.49.86l-363.98-210.14-531.81-307.04c-130.96-75.61-211.64-215.34-211.64-366.57v-1236.28c0-146.2,78-281.3,204.61-354.4l538.83-311.1,368.31-212.64c166.73-96.26,375.14,24.07,375.14,216.59h0v440.19c0,.54.44.99.99.99,464.89.53,841.58,377.55,841.58,842.56,0,329.2-188.82,614.26-464.04,752.91-.33.17-.54.51-.54.88v306.73c0,.76.83,1.24,1.49.86l586.91-338.86c88.2-50.92,142.54-145.03,142.54-246.88v-962.42c0-94.96-50.66-182.7-132.89-230.18l-597.54-344.99c-.31-.18-.5-.5-.5-.86v-434.16Z"/>
    </clipPath>
    <linearGradient id="Gradient_bez_nazwy_2" data-name="Gradient bez nazwy 2" x1="464.22" y1="4213.54" x2="3839.23" y2="-136.97" gradientUnits="userSpaceOnUse">
      <stop offset=".24" stop-color="#6fc1e4"/>
      <stop offset=".31" stop-color="#73bce0"/>
      <stop offset=".38" stop-color="#7faed8"/>
      <stop offset=".47" stop-color="#9497c9"/>
      <stop offset=".56" stop-color="#b176b4"/>
      <stop offset=".64" stop-color="#d64d9a"/>
      <stop offset=".7" stop-color="#ef3289"/>
    </linearGradient>
  </defs>
  <g class="cls-3">
    <rect class="cls-2" x="486.8" y="192.64" width="3388.41" height="3615.82"/>
  </g>
</svg>